<?xml version="1.0" encoding="utf-8"?>
<!-- Generator: Adobe Illustrator 19.1.0, SVG Export Plug-In . SVG Version: 6.00 Build 0)  -->
<svg version="1.1" id="Ebene_1" xmlns="http://www.w3.org/2000/svg" xmlns:xlink="http://www.w3.org/1999/xlink" x="0px" y="0px"
	 viewBox="0 0 127.6 127.6" style="enable-background:new 0 0 127.6 127.6;" xml:space="preserve">
<style type="text/css">
	.st0{fill:#FFFFFF;}
	.st1{fill:#DB0812;}
</style>
<path id="Bubble_1_" class="st0" d="M63.8,127.6c35.2,0,63.8-28.6,63.8-63.8C127.6,28.6,98.9,0,63.8,0C28.6,0,0,28.6,0,63.8
	C0,98.9,28.6,127.6,63.8,127.6L63.8,127.6z"/>
<path id="NKD_1_" class="st1" d="M15.6,48.3h11.1l9.7,16.1l0-16.1h11v31h-11L26.7,63l0,16.3h-11V48.3L15.6,48.3z M50.2,48.3v31h11.2
	v-13l7.4,13h13.4l-11-15.9l9.9-15.1H68.6l-7.2,13.4V48.3H50.2L50.2,48.3z M84.2,48.3v31h14.6c9.3,0,16-5.8,16-15
	c0-11.4-8.2-15.9-18.8-15.9H84.2L84.2,48.3z M95.8,70V58h0.7c4.2,0,6.8,1.8,6.8,6.2c0,4.1-3,5.8-6.8,5.8H95.8L95.8,70z"/>
</svg>
