<?xml version="1.0" encoding="utf-8"?>
<!-- Generator: Adobe Illustrator 16.0.0, SVG Export Plug-In . SVG Version: 6.00 Build 0)  -->
<!DOCTYPE svg PUBLIC "-//W3C//DTD SVG 1.1//EN" "http://www.w3.org/Graphics/SVG/1.1/DTD/svg11.dtd">
<svg version="1.1" id="Layer_1" xmlns="http://www.w3.org/2000/svg" xmlns:xlink="http://www.w3.org/1999/xlink" x="0px" y="0px"
	 width="1410px" height="454px" viewBox="0 0 1410 454" enable-background="new 0 0 1410 454" xml:space="preserve">
<metadata><?xpacket begin="﻿" id="W5M0MpCehiHzreSzNTczkc9d"?>
<x:xmpmeta xmlns:x="adobe:ns:meta/" x:xmptk="Adobe XMP Core 5.3-c011 66.145661, 2012/02/06-14:56:27        ">
   <rdf:RDF xmlns:rdf="http://www.w3.org/1999/02/22-rdf-syntax-ns#">
      <rdf:Description rdf:about=""
            xmlns:dc="http://purl.org/dc/elements/1.1/">
         <dc:format>image/svg+xml</dc:format>
         <dc:title>
            <rdf:Alt>
               <rdf:li xml:lang="x-default">Artworxx_logo_Simple_Creative</rdf:li>
            </rdf:Alt>
         </dc:title>
      </rdf:Description>
      <rdf:Description rdf:about=""
            xmlns:xmp="http://ns.adobe.com/xap/1.0/"
            xmlns:xmpGImg="http://ns.adobe.com/xap/1.0/g/img/">
         <xmp:MetadataDate>2014-12-22T12:58:11+01:00</xmp:MetadataDate>
         <xmp:ModifyDate>2014-12-22T12:58:11+01:00</xmp:ModifyDate>
         <xmp:CreateDate>2014-12-22T12:58:09+01:00</xmp:CreateDate>
         <xmp:CreatorTool>Adobe Illustrator CS6 (Windows)</xmp:CreatorTool>
         <xmp:Thumbnails>
            <rdf:Alt>
               <rdf:li rdf:parseType="Resource">
                  <xmpGImg:width>236</xmpGImg:width>
                  <xmpGImg:height>256</xmpGImg:height>
                  <xmpGImg:format>JPEG</xmpGImg:format>
                  <xmpGImg:image>/9j/4AAQSkZJRgABAgEASABIAAD/7QAsUGhvdG9zaG9wIDMuMAA4QklNA+0AAAAAABAASAAAAAEA&#xA;AQBIAAAAAQAB/+4ADkFkb2JlAGTAAAAAAf/bAIQABgQEBAUEBgUFBgkGBQYJCwgGBggLDAoKCwoK&#xA;DBAMDAwMDAwQDA4PEA8ODBMTFBQTExwbGxscHx8fHx8fHx8fHwEHBwcNDA0YEBAYGhURFRofHx8f&#xA;Hx8fHx8fHx8fHx8fHx8fHx8fHx8fHx8fHx8fHx8fHx8fHx8fHx8fHx8fHx8f/8AAEQgBAADsAwER&#xA;AAIRAQMRAf/EAaIAAAAHAQEBAQEAAAAAAAAAAAQFAwIGAQAHCAkKCwEAAgIDAQEBAQEAAAAAAAAA&#xA;AQACAwQFBgcICQoLEAACAQMDAgQCBgcDBAIGAnMBAgMRBAAFIRIxQVEGE2EicYEUMpGhBxWxQiPB&#xA;UtHhMxZi8CRygvElQzRTkqKyY3PCNUQnk6OzNhdUZHTD0uIIJoMJChgZhJRFRqS0VtNVKBry4/PE&#xA;1OT0ZXWFlaW1xdXl9WZ2hpamtsbW5vY3R1dnd4eXp7fH1+f3OEhYaHiImKi4yNjo+Ck5SVlpeYmZ&#xA;qbnJ2en5KjpKWmp6ipqqusra6voRAAICAQIDBQUEBQYECAMDbQEAAhEDBCESMUEFURNhIgZxgZEy&#xA;obHwFMHR4SNCFVJicvEzJDRDghaSUyWiY7LCB3PSNeJEgxdUkwgJChgZJjZFGidkdFU38qOzwygp&#xA;0+PzhJSktMTU5PRldYWVpbXF1eX1RlZmdoaWprbG1ub2R1dnd4eXp7fH1+f3OEhYaHiImKi4yNjo&#xA;+DlJWWl5iZmpucnZ6fkqOkpaanqKmqq6ytrq+v/aAAwDAQACEQMRAD8A9U4q7FXYq7FXYq7FXYq7&#xA;FXYq7FXYq7FXYq7FXYq7FXYq7FXYq7FXYq7FXYq7FXYq7FXYq7FXYq7FXYq7FXYq7FXYq7FXYq7F&#xA;XYq7FXYq7FXYq7FXYq7FXYq7FXYq7FXYq7FXYq7FXYq7FXYq7FXYq7FXYq7FXYq7FXYq7FXYq7FX&#xA;Yq7FXYq7FXYq7FXYq7FXYq7FXYq7FXYq7FXYq7FXYq7FXYq7FXYq7FXYq7FXYq7FXYq7FXYq7FXY&#xA;q7FXYq7FXYq7FXYq7FXYq7FXYq7FXYq7FXYq7FXYq7FXYq7FXYq7FXYq7FXYq7FXYq7FXYq7FXYq&#xA;7FXYq7FXYq7FXYq7FXYq7FXYq7FXYq7FXYq7FXYq7FXYq7FXYq7FXYq7FXYq7FXYq7FXYq7FXYq7&#xA;FXYq7FXYq7FXYq7FXYq7FXYq7FXYq7FXYq7FXYq7FXYq7FXYq7FXYq7FXYq7FXYq7FXYq7FXYq7F&#xA;XYq7FXYq7FXYq7FXYq7FXYq7FXYq7FXYq7FXYq7FXYq7FXYq7FXYq7FXYq7FXYq7FXYq7FXYq7FX&#xA;Yq7FXYq7FXYq7FXYq7FXYq7FXYq7FXYq7FXYq7FXYq7FXYq7FXYq7FXYq7FXYq7FXYq7FXYq7FXY&#xA;q7FXYq7FXYq7FXYq7FXYq7FXYq7FXYq7FXYq7FXYq7FXYq7FXYq7FXYq7FXYq7FXYq7FXYq7FXYq&#xA;7FXYq7FXYq7FXYq7FXYq7FXYq7FXYq7FXYq7FXYq7FXYq7FXYq7FXYq7FXYq7FXYq7FXYq7FXYq7&#xA;FXYq7FXYq7FXYq7FXYq7FXYq7FXYq7FXYq7FXYq7FXYq7FXYqoXt/Z2MBnu5lhiH7TGlT4AdSflh&#xA;jEnkwnkjAXI0FHTdVh1ASNDFMkSU4yyxmNX5V+xy3NKb7YZQpjizCfIH5I3ItrsVdirsVdirsVdi&#xA;qVeY9dGi2Ud0YfXDyiIqG4kVVmr0P8uWYsfEacbVajwoiVXu35d1o6xYNdmL0R6jIqV5GigdTQeO&#xA;OSHCaTps/ix4qrdNMrch2KuxV2KuxV2KuxV2KuxV2KuxV2KuxV2KuxV2KuxV2KqdzcRW1vLcSnjF&#xA;Cpdz7KKnCBZpjKQiCTyDDfLLP5i1m51S/AeK0otrbndEL1pt3IA6+OZOX0RodXV6QnPkM5co8gzb&#xA;MV2yVeYfMNpotqssoMkshIhhBoWI6mvYCuWY8ZkXG1OpjijZ5utG8wXNolw8tvbSSKHSD0nkABFQ&#xA;Hf1FqfGgxPCDSw8WUbsD4ftQGmebZG1VtI1WFba+VuCPGSY3Y7gCu45D7OTlh24hyacWs9fhzFS+&#xA;xkchkEbGMBpADwVjxBPYEgNQfRlDnG62Y5r3mq+0X0PrVhE/1jnw9K4Y04UrXlCv82X48QlyP4+b&#xA;g6jWSxVxRG/n+xG2muTX1rbtZ24NxNGJZFd/3cSsaDm4FSTTYAfdkDCju3QzmcRwjcj5IG481XGn&#xA;a3FpupRxMkwQrcQFhx5kgclavceOTGLijYaZawwyCE+vUJf+YD6odJiF1FAkP1leDRSO7E8HpVWR&#xA;ANvfJ6euLbuaO0jPgFgVxd/v8lXyJJqa6GRbW8MkfrP8UkzxtWi/srFJ+vBqAOLdl2cZ+HsBz7/2&#xA;FlVq96wb61FHERTiIpGlr415JHTMc10djAy/iAHxv9AVsDN2KuxV2KuxV2KuxV2KuxV2KuxV2Kux&#xA;V2KuxV2KuxVKvNYc+Xb8JsfSJPyBBP4ZZi+oONrP7qXuYr+WdyFur627yRpIP9gSp/4nmRqhsC63&#xA;smW8gz/MN3bGfOHle81mS2ktZERoQyushIFGINRQNl+HKI3br9dpJZaMTyZBZQNb2cFuzc2hjSNn&#xA;/mKqAT9NMpkbNudCPDEDuebeY7qObzpzhaojmhTkP5k4g/cdszsYrG6DVTB1G3eHp+YD0LBfzP8A&#xA;+lb/AM9/+ZeZel6um7W/h+P6GQeTbdYfL1oRu8q+o7dySaD7lAGU5jci52hjWIeaD1HyVHfa9+k5&#xA;bo+kzIzwcak8ABxDV6Gnhko56jVNWXQCeXjJ27lL8yf+OHB/zFJ/ybkw6b6vgx7V/ux/W/QVT8u/&#xA;+UfP/Gd/1LjqfqZdmf3XxZPmO7B2KuxV2KuxV2KuxV2KuxV2KuxV2KuxV2KuxV2KuxV2KqV3Atxa&#xA;zQN9mZGjavSjAjCDRtjOPECO957+W8MjazPKAfTjgKue1WZaD/hTmbqT6XR9lxPiE+T0fMF3zGfM&#xA;HnL6jfDTbCAXN8SqnkaIrPTiu25O/jl+PDYs8nX6nXcEuCIuSaQabdzRA6ndNM7CrwRfuoR7fD8b&#xA;D/WbfwysyA5ByY4pEes37tgwDzFHFH5zaOFVSNJbdVRQAoARBQAZm4/7v5uk1IA1FDvH6HqOa96J&#xA;gv5n/wDSt/57/wDMvMvS9XTdrfw/H9DJfKv/ACjth/xiGUZfqLsNJ/dR9ya5W5LFPzJ/44cH/MUn&#xA;/JuTMjTfV8HW9q/3Y/rfoK3yRNLB5UuJok9SSKSV0jJpyKqDSu/XDnFzRoJEYCR5oybzfFH5aj1n&#xA;0gZJW9NbflT4+RBHKngpPTIDD6+FtlrQMIyVz6L77zQIdN066toRNNqLokUJbjQsN9wD9ltsY4rJ&#xA;B6MsmrqEZAWZLdQ8y3o1KXT9KsDfTW4DXL8wirUVoK98Y4hVk0jJqpcZjCPERzVbTzPHdaHdaikJ&#xA;SezD+vbMdw6CtK06HxpgOKpAd7KGrEsZnW8eiG0zzJrmoNbSxaTSxnPFpzKBSn2mpStBQ9t8lLFG&#xA;N77teLVZJ0RD0nrbpfOKWkmoQajALe5tBygQNUTA7LxJA61H+YxGG6I6qdaImQmKMftVbnzBqlto&#xA;cOqyWAoxDTQBzySNvst9n7x2wDGDKrZT1M44xMx+HkvtvMy32rx2WnRCeD0xLcXRJAQMKgUoancf&#xA;5jAcVRssoarjnwwFirJTzKnLdirsVdirsVdirsVdirsVdirGZ/ML6yZNO0KnqMOM13L8AjQ7Eqh+&#xA;Nj9G2XjHw7ycCWp8W44/n3fpTXQtDtNHshbQVZieUsp+07ePy8BleTIZGy5Gn08cUaCY5BvebeYr&#xA;K70rzUuqSxNJZmdJ1kAqNiCVr2I7ZnY5CUK6uh1WOWPNxkem7ZuvmPRpIg8Fytw7CqQQ/HK3t6Y+&#xA;L78xPDl1DtxqcZGxvyHP5MA8x2d/a+YVv76MpFcSJMGG6qNqoSNuSUpmZikDGg6XVQlHLxS5EgvR&#xA;rbVbC6DtbSiZEXk7xgso9uQFK+3XMIwI5u9jljLkbYf5+Mmo/UfqUM03per6lIZBTlwp1UeBzJ0/&#xA;pu3VdpXPh4QTV9D5J/5bvYYdIsbSVZUuFRUZGilFGr3PGmU5Y3IlztLMDHGJu/cU8ypy2P8AnnTb&#xA;m+0MrbqZJIJFm9NdywAZTQf7KuXYJAS3cHtDEZ49uhtK/ImsaZa6TLa3dzHbzRzMxSVglQQOnKle&#xA;mWaiBMrDj9n54RgYyNG+qD0jT3l8xjSCA+m2c0l8g6gq6r6X0br+OSnL08XU7NeHGTl4P4Ini/Uv&#xA;0DT7k+Z002be20VppIa+EjApX51DY5JDgv8AnJ0+M+NwHljv7UWmoxeXfMOqNqEcgt9QKywTIvIH&#xA;jyPH5/HTI8PHEV0bBlGDLLi5S5LNOguD5b1/UJYzCmoGaaGNtiEIJrT/AGWMiOOI7kYonwskiK4r&#xA;LIPK3/KO2H/GIZTl+oubpP7qPuYprf1rX9RuL/T4ke10hQEdlr6zK3Jh/lCldvD55kY6gKP8TrdR&#xA;xZpmUBtD7fx+Oadah5stJPLi3UCiS5vQYIrUjkfVIowI7ha/Tt45VHCeKj0czJrInFxDnLavNAeV&#xA;xP5e1P8ARF+qr9fVJIJx3kpQxk/PYe/zyeX1jiHRo0gOCfhy/i5H9H4/SzXMV2zsVdirsVdirsVd&#xA;irsVdirsVSvXNBttRgZ0X0r+Mcra6T4XVx9n4hvTLMeQx9zj6jTiY7pdCgPJnmSTVrR4bkg3luBy&#xA;bpzQ7BqePjk8+LhO3Jo0OqOWNH6gyPKHPcQCKEVB6g4qtjhijBEaKgPXiAP1Y2gADkuZVYUYAjwO&#xA;KXAACgFAOgGKuxV2KuxV2KtGNC3IqC3jTfFFN4pdiriAeu+KuxV2KuxV2KuxV2KuxV2KuxV2KuxV&#xA;2KuxV2KuxVDapdfVNNurn/fMTuPmFJH45KIsgNeWfDAnuDz/APLhXOuysPsi3bkfm6Zman6XSdlj&#xA;94fd+p6TmC792KoO6srma+tLiO7eGG3LGW3UfDLyFByNe2SEgARTVOBMgQaA6d6MyLa7FXYq7FUL&#xA;qkcj6fOI5XhkVGZJIzQgqCR1ByUTu15QTE0aQ/luaWfQrKWZzJK8YLuxqSfcnDkFSLDSyJxxJ50m&#xA;WQb2O3up3l/r/wChLGU28UC+pfXKU502PBCdh9ob/wBMujECPEXByZZTy+HE0BzKZnSTGlbW6njn&#xA;A+F5JZJlJH8ySMwoe/GhyHH3hyPBr6Sb95P3pfGb668sSz3E0kN9ELol4nZaPHJIANuoHGlMmaE9&#xA;uWzQDKWEkmper7CUP5bs5L/y5b3Ul5dLeSCSs/1iU0KyMqngzFNgB2yWWVSqhTDSQM8QkTLi33s9&#xA;/wAkT5M1m71XSmlu6GaGQxGQCnKihqkDavxZHPAROzPQ55ZIXLmCgtUa6j83WFml3cLa3as8sQlY&#xA;Cvxn4aGoG3TJQrgJrk1ZiRnjGzUvNNZNPmS+t5LO7mb0ZALu2eUupjdTuQx6jrlYltuHJOMiQMSd&#xA;uYtNXdURnc8VUEsx6ADrlbkk0xvy/rV5Lrd9ZXwKGYLc2aMekZUfCK/5NCR41y/JAcIIcDTZ5HJK&#xA;Muu4934/SmX6NuZtSup57mdLY8Ft4Y5Ci7KOTfCa9dshxAAN/hEzJJNdN0m036xP5q1LT5Lq4Nrb&#xA;orRJ6zggnj3rXvlkqEAacXFZzSiSaHmnEWk3CXdwrXVw1nKiGOsrckcFuQVq8qEUyszFct3KGEiR&#xA;3PCfNJ/Jv1rULa7kvLy4leOZoU/esAFC9dj13yzNQIoOLobmCZEneubWmNd23myfTL68nljK+tYc&#xA;pGow60YD7W1R9GGVGFgLiMo5zCRJ6hPdeDnTJfSleK4NFt2jYoTK/wAEYNOoLMK5Tj5uZqPoNGj0&#xA;9/RLdetLmw8tyyx31wbq2UN6/qNVmLKGqOlPDwyzGQZctnH1EDDESJGx1VrGyW40azllvbmK4uYI&#xA;j6omf+8dAdgTTr2yMpVI7M8cOLGCSbIHVE+hqv8Ah/6vzP6S9H0/V5b8+nPl+OCxxX0Z8M/Cr+Om&#xA;/MsTy6BfogqxhYgeNBX+GDEfUE6oE4pAdzF/yyiHLUJj1AiQfI8if1DMjVHk63smP1H3M6zEdyxT&#xA;XZWtb28bUYZjY3CqtrqUFSbaqBSpAIIHLc+PvmRjFgVz7u912olwyPGDwnlIfwqurxxDWtBnidmE&#xA;0hBYM3FlCDieNaYIfTJlmA8TGR1P6Grizjk87CHnIkUtiZJkV2HImWhHiAeIrxphB/d/FEoXqK6c&#xA;P6VsNjHH5qn0yJ5ItPktVuZLZWIUuH4U8VBrU0O+Jl6L62sYVmMB9PDdIjTbaODzBqenxllsmhik&#xA;EAZgFZqhuO9Vr7ZGRuIPVnijWWUR9NBDeVtMtLmDUhcq08cd9NHHHIzMqhQu4BPXfrkssiKrua9J&#xA;iEhK9/UV+kzTRTa7pRdpLezHK2LksyrIhPCp3oO2CY+k96cMiDOHSPL4oWS9ubfyho8Fuxje9eK3&#xA;aQGhVWJrQjpXpkhEGZvo1nIY4IAfxUE1XQrqK/tbq09GzWIkXMcXIiZDQEOKCpFNicr8QUQd3J/L&#xA;kSBjUa5+aW6AfR866zDKKSSgvHXuvIHb6GGWZN8YcfTbaiYLLsxnZpbPdQXWh3k0ApGUuVHTcoXQ&#xA;tt4la5MCpD4NEpiWMkef6WJWsWsx+TbW7tLh5LVfUN3ZAKtYvVcNwkVRIPff+mZMjHjILrIDINOJ&#xA;RO29jyvv5su8vSaXJpMD6YgjtSNox1Vv2g3vXMbIDxbuz0xgYDg5JHr0fq+ddITkycom+JDRh9vo&#xA;cuxn92XE1AvUQ93607tbUaa1/dTzu9u3GUyStzZVRPi6DoKZSTxUHLjHw+Ik7N6u7zRQ2cADvdmr&#xA;BiVHopRpKmjGjbJ0/axhtv3LmNgRHX7uv6vikPmtL+zurHXvRjQ2biOb03Llo2PQ1RKDcj6cuw0Q&#xA;Y97h6wSiY5a+n7vky2GWOaJJYzyjkUOjDoVYVBzGIp2QIIsMX0f/AJTrWP8AjEv6kzIn/dh1+D/G&#xA;Z+79TKsx3YsV/L7/AHhv/wDmKb/iK5kajmPc67s36Zf1lTztazRw2us2w/0jTpAzU7xsRWv0/gTg&#xA;wHnE9U6+BAGQc4lMoLqLU7q1lhNbaGMXJ/4ySgrGp/1V5Ej5ZAjhBciMxkII5Vfz5KfnD/lGr7/U&#xA;X/ia4cP1hjrf7qSH0zSZJdM0WdLiU+kkErRM/wAFPSoQBTtXbDOe5DDDhJhA2dq+5OP0jZ+v6HqD&#xA;1fU9HjQ/3np+rxrSn2N8r4TVuV4kbq97r7L+5EEAih3B6jIs2ILp115Y1Wa9tIWuNHuh+/ijFXio&#xA;aghe4Wp+jMniGQUfqdYMR08zKIuB5+TJNP1XTtRjL2c6zAU5KD8S1/mU7j6colAx5ufjzRmLibQ8&#xA;+l3r/XI1ulFvek843j5lAyBDwPJetO+SEhttya5YpGxe0vJSuvL8ks1g0NyIY9NAFtH6fLooX4iW&#xA;Fdh7YRk5+bGemsxo1w8l7aNcHXF1X60Oax+h6Pp7ely5UryrXfrg4xw8NJ8A+Jx30rl0bTRp111t&#xA;WN0CzR+h6Pp0HpcuQFeXWo648fp4aSMB8TjvpXwat9GuIdZn1P60GNwAkkPp0HFfs0PKtR44mYMa&#xA;pY4CMhnfPySryxFqBTVXtLhErfzqY5Yy61AX4hxZCDvv1yzKRtfc42kEvXwn+MpnbaA1vZ3caXJN&#xA;5fEtdXjLUksCPhUEcaV232ys5LI7g5EdPwxIv1S5lanluNtFTSrmYypCQbeZV4OhX7J6sCRXD4vq&#xA;sIGlHh8BN1yRkNrqRZBc3SvHGQf3SNGzkdOZ5tt4gdfltkCR0DaIy6n9H6VHVNBgvbiG8ila11C3&#xA;/urqOhNP5WB2Ye2ShkoV0YZtOJkSBqQ6r/qerSp6Vzep6R2cwRGORh/rNJJxr7CvgcHEOgTwTOxl&#xA;8hX6Sp/oP0tIOl2U/oW5EqlmXmwWVmaimq0pypXD4lyso/L1DgiaG/2u0PR5tLtFs/rIuLVOXBWj&#xA;4sORqdwxFKk9sck+I2unwHHHhuwh7Hyy+nXs0+nXhgt5zyezZA8dfbdSMMsvENwwx6Xw5EwNA9HX&#xA;fl26udXg1Rr4LNbCkKCL4Qu+xq9T9rEZAI1Sz0xlkE+LceSpq2iajqdsbaXUBFC321hh48gOxLOx&#xA;pjCYibpObBLIKMqHkP2qyaXeLq51BrzknAxLbemAqxluVAQeu3XI8Q4apmMUuPiv4Uq6xpz6jYyW&#xA;YlEUco4yMU5mntutDXBCXCbZZsfHExvmpaRpd1pth9TF2J1jFIGeP7I3NDRviHhhnMSN0xw4jCPD&#xA;d9yEtfLt5batPqaX4a4uRxlVofgI2pQBwf2fHJHIDGqaoaaUZmfFufJOZ1naIrBIsUh6Oy8wPoqu&#xA;VhypA1slWgeX5tH9REu/WhlcySI0dG5EUqGDbfdlmTJxdHH0+mOLrYPkmtxBFcW8kEo5RSqUceIY&#xA;UOVg0bciURIUeqC0DRo9I05bRX9RuReSSlORPt7AAZLJPiNtWnwDFDhdrelzanZtZi5+rwSACWic&#xA;mNCD1LCnTwxhPhNrnwnJHhugss9M1K0sYrOK9ThCoRJDBVwAKD9vj+GGUgTdIhinGIiDy8v2oP8A&#xA;wpJ9Q9D9IS/Wfrf1363xHL1OHClK5Lxt+XSmr8meGuI3xcVsgylzXYqtWGJXaRUVXf7bgAE08Tja&#xA;KC7FLsVdirsVadeSFeRWopyXqPlighBaZo9rpxl+rtIRMxkkV3LAuerb9zk5TMubViwRhddUdkG5&#xA;2KuxV2KuxV2KuxV2KuxV2KuxV2KuxV2KuxV2KuxV2KuxV2KuxV2KuxV2KuxV2KuxV2KuxV2KuxV2&#xA;KuxV2KuxV2KuxV2KuxV2KuxV2KuxV2KuxV2KuxV2KuxV2KuxV2KuxV2KuxV2KuxV2KuxV2KuxV2K&#xA;uxV2KuxV2KuxV2KuxV2KuxV2KuxV2KuxV2KuxV2KuxV2KuxV2KpRqvmGO0uksLSE3upSbrbIQAo6&#xA;1dj9nbfLIY7FnYONm1IieGI4p9yL00avR31FoatT04oA1E61qzH4u3bIy4ejZi4/46+CMyLa7FXY&#xA;q7FXYq7FXYq88/PDX9Z0PyrZXuk3b2dydQjjaSOlShhmJUgggiqg5ha7JKEAYmt/1uRpoiUqPcv/&#xA;ACS1nVdY8pXN9ql1Jd3T30oMspqaCOOijsAPAY6GZlAkm911MQJUO56Bma47sVdirsVdirsVdirs&#xA;VdirsVdirsVdirsVdirsVdirsVQmrXv1HTLm7pUwxsyg9C1PhH35KEbIDXmycEDLuDEvy5pcXGpX&#xA;szepdsUDOetHLM33kZk6nYAdHWdl+oykfqZxmI7d5h+dn5hap5btbTTNIf0L6/V3luqVaOJSF+Cu&#xA;3JjXftTMDXagwAEeZcrTYhLcp15b8i+Wrzy1Yz3yy6ndXtvFcTajcTTNO7yoHLq/PknXbjTbLMWn&#xA;gYAncnqwnlkJGtnn9j5v17yL+ZD+WLzUJtT0F5ool+tMZJIo7hVaN1c7j0+dGHQ77dMw45pYsvAT&#xA;cW84xOHFVF7jcQ+tbyw83j9RGT1IzxdeQpyU9iO2bYiw4QLxn85tQ8weUv0P+iNc1AfXfrPr+rNz&#xA;/uvS402FP7w5q9bKWOuGR3tzNOBO7AZH5DvNd83+XLBrjULi3sLaMJe3ULenc3dzXkyiUfFHHGCo&#xA;JWjM1RUU3v08pZIizt9pa8oEDy3YV5o833nlL8z0sfL93dy6fEYI7/Tp55bmN5JKFwnrM7AlGXet&#xA;Q3ttmLlzHHlqJNdzdDHxw3TT89vLyaf5WtrpdQv7oyagi+jdXLzRLyhmaqo3QilAfDLNfi4YXZ59&#xA;7HTTuXIclf8AI3Qfr/k2Wb9I3trS9lX0rab002SM140O++HQ4+KHMjdGpnUuQep6VpP6PWQfXLq8&#xA;9Qg1upPVK0r9nYUrXfNhCHD1JcWUrR2TYuxV2KuxV2KuxV2KuxV2KuxV2KuxV2KuxV2KuxV2Kpb5&#xA;ltzPoF/GBU+izAe6fF/DJ4jUg0aqPFikPJhn5a3BXVbmD9mWHn9KMAPwY5laobAup7Kl6yPJ6LmE&#xA;71jXnD8vPLfm1rV9WST1bSvpyQvwYq1CUbY1Xb5+GUZtNHJV9G3HlMOSMm1jy35ftrfTWuEh+rxp&#xA;Da6fHWW4KIoVFSFOcr/CB0GSM4QFfYxEZS3fOnny+vL781Jbi7tns5GubThbSUDrFwj9PmATRmSj&#xA;EV2Jpmk1EictkVydjiAEH1JnQOreI/8AOS3/AEzn/R7/AMyM1Xaf8Px/Q5uj6vQfymijj/LrRFRe&#xA;KmFmIHi8jMx+knMzRj90GjP9ZTK58k+VLnXU16fTYpNWRldbo8q8owAjFa8SygChIyw4IGXERuwG&#xA;SQFXswj/AJyL/wCUJsv+2lF/yYnzE7R/ux7/ANbfpPq+Cr/zj3/ygs3/ADHzf8m4sPZ3938Uar6v&#xA;g9NzPcZ2KuxV2KuxV2KuxV2KuxV2KuxV2KuxV2KuxV2KuxV2Kqdy8KW8rzECFUYyE9OIG/4YRzYy&#xA;IAN8mC/lvpk31m41J1IhCGGMn9piQWp8uP45l6mW1On7LxGzPpyZ9mG7p4H+YPnfzJrvn4eUdMvZ&#xA;LDThdx6e3oEo7u7BJHkZfiIDE/DWlBmn1GeU8nADQunPxYxGHEeb2jy95Y0Ty/ZLaaXbLCtB6s1A&#xA;ZZW7vLJ1difH6M2mPFGAoBw5zMju+dfzIuFn/OC8degu7WPrXeOOJD+K5pdSbzH3h2GEfuw+ns3z&#xA;rHiP/OS3/TOf9Hv/ADIzVdp/w/H9Dm6Pq9D/ACq/8l5of/MP/wAbtmbpP7qLj5/rLK8yGp5b/wA5&#xA;F/8AKE2X/bSi/wCTE+a/tH+7Hv8A1uVpPq+C38iIpZvy4vYoXMUz3dwscimhVjFHxNfY5Lsw1D4s&#xA;NcCTQ50nn+INSm8q20EMjnV5rg2vIGklUbkTX/VKg/PNz4YEz/NdD+ZmcIA+smlSfXL2/wBO0K2t&#xA;Z3iu72TjcyIaMBF8Dk08ftYBjAMieQZS1EpwxgGpSO/w5oh21bXNcv7W3v5LC004qgEX2mc13O61&#xA;3U5HaEQSLJZkzzZJREuGMe5qw1jUn8vaxFcSk32merF9YXZjxBodu4KnDKA4hXIrjzzOKYJ9UL3X&#xA;+X9N1q8trHU7jV5/io7W604lBsAexJoKkjBklEEgBOmxZJCMzM+5B6tqeuaJe3Nikj3S6gB+jZHb&#xA;k0bs3ErU+Ff1e+ShCMxfdzas2bJikY8+L6fJNb7S9Zi8voIL6ZtTtx6ryczSQ9WTft/L/blcZx4t&#xA;xs5OTFkGLaR4x9qE8v6lqev6l9eZ3ttPtUVDAjUEk1KtX2Ff1e+SyREBXUtWmyzzT4uUR07yyzMd&#xA;2TsVdirsVdirsVdirsVdirsVYbqU+oyXSw+ZeVppTEBRaisLmuwlkqXA9qDMmIFejm6vLKRNZtoe&#xA;XL4nmy61jto7eNLYKtuFHpCOnHj2pTMck3u7KIAG3JUwMnkH5gflHrk/mgeavK0kZvDNHcyWkrcC&#xA;s8ZBEkbN8JDFakMRv+Gt1GjkZ8cObl4s44eGTM7TWPzDvrRYX8vw6TesOL3dxdxzwoe7rHByd/ZS&#xA;V92zJE8pH00fe1GMB1t5550/JTXxrUWtaBKNRld0mvI7l1jka4UhnlqeKcZG+Iiop22zCz6GXFxR&#xA;3b8eoFUdnqulXvmu6SaW/wBMt9NAjIt7c3JnkaXsXZECKny5HNjCUzzFfFxZCI5G2EfmL+XnnTzr&#xA;+j/WfTbL9H+tx4SzycvW4dawrSnp5ianT5MtchX47m/FljC+bI/J+kecdC0jTtHlj06a0swI5J0n&#xA;nEhTlVmVDDxrQ7CuX4YZIREdqH47mvJKMiTuy7MlpYz+Ynk1PN3lqXSxKILlXWezmYEqsqAgcqb0&#xA;ZWZTTpWuUanD4kKbcWTglbE/y40j8wfJum3Ojz6FHqFu85nhuobuGMAsqqwIf4uPwVrSvtmNpoZc&#xA;QMeG/i25ZQmbtk+keWL2LzG2p3KJFAQ0yQK/MJPMo9RRstQpLAGm9Bm3Oa4AdXSw0ZjnM/4enxVN&#xA;I8rT2fmW5v3K/Uxza0UGpDS05bdqCoxnluAHVcOkMcxl/D0+Ld1pOv2Gr3V/o3oyx3wUzwzVHFx+&#xA;0KEeJPXETiYgS6LPDlhMyx16u9dZeW7y30DUbeR1l1HURI8rA0Tm4oBWmMsoMgegTj0so4pA7yla&#xA;baHZzWWkWtrMB6sMYVwpqKjwOV5DciXJ08DCAieYDH7rypqGrT315qbiO4ZeGnRo1RGFNRWn3ff7&#xA;ZcMwjQHxcKejlkMpT5/w+SLvLXzRdaBFYERpeSfuru457GMftCndh1+nIxMBK+jbOGaWIR/i6lbp&#xA;3ly80bWEk04h9NmjVLuN2owZRTmP1/fjLIJR35oxaWWLJcPoPNkuUOe7FXYq7FXYq7FXYq7FXYq7&#xA;FVG8toLq0lt7gBoZVKuD4Hv9GGJo2GM4iQIPIsM/LnWJnM2lysWRF9aCv7IqAy/8MD9+ZWph1dT2&#xA;XnJuB94ZzmI7h2KqUt3axTRQSSqk01fSjYgM3Hc0GEAsTMAgE7lVwMnYq7FXYqp3FzbW0RluJUhi&#xA;GxeRgq1PucIBPJjKQiLJoNwTwzwrNC4kicVR13BHtiRSYyBFjkvwJU57iC3iMs8ixRL1dyFUfScI&#xA;BPJjKQiLJpQh1bTZnVI7hCz/AN2Cacv9WtOX0YTAhjHNE8ivn1Kwt4hNPcRxxElQ7MAtVNCK/PER&#xA;JTLLGIsnZQXX9FZA/wBcjEZ2EjHinWn2jReuHw5dzD8xjq7FI5HV1DIQysKqwNQR7HINwNoKTXNH&#xA;jmaB7yFZkJVoy45AjqKZPw5dzSdRjBriFrotZ0qWdYI7uJ5n+xGGHI99h9GAwPOkjNAmgRaMyLas&#xA;jnhkeRI3DNE3CQA/Zagah+g4SECQPLoh59W0yCcwTXUccygFo2YBgD3phECd6YSzQBokWpjXtFLF&#xA;Rewlh1XmKjD4cu5j+Yx/zguXWtIZJHW7iKxU9Uhh8NelfDpg4JdyRnh3jZbHr+iyV4X0LcQS1HBo&#xA;AKk4fDl3IGoxnlINwa5o88qxQXsMkjbKiuCT9AxOOQ6LHUY5GhIFEXV5aWkXq3Uqwx1483IUVPap&#xA;yIiTybJzjEWTSHbXdGWJZjewiJyVRy44kjqAcl4cu5r/ADGOr4hTR17RQvM3sITry5im/vj4cu5f&#xA;zGPnxBFfW7b6t9a9Vfq3Hn61Rx40ryr4ZGjdNnGK4r2Quv3DW+iX0y/aWF+J8CRQH8cljFyDXqJc&#xA;OOR8mEfltAzavcTfsxwFfpdlp+CnMvUn0un7Kj6yfJ6NmC75B3Wr2Ns0iyswEIrM6o7KlRUcmAIF&#xA;RkhAlqnmjG76Ie7vdE/SlnHcLyvyT9UJjao5Cpo1OPT3yQjKjXJhOePjiD9XRUk1/Sorx7OSUrcR&#xA;rzZCjgkVC/Dt8ZJO3GuAYzVpOogJcJO7UXmDS5PVHqMkkJAkheORZat9mkZXk1fYYnGVGogb8vI3&#xA;8lS11mwuhP6bsJLb+/hdHWRK7iqEct/YYmBDKGeMrrpz71C38y6Xco7Wxln9NirpHFIzCncqFqv0&#xA;4TiI5sI6qEhtZ+BVHvLHUtIuZIHEsLRyIwoQQQpqrKdwR74OExkyM45IEjcIby9cwW3leznuHEcM&#xA;cILu3Qb5LILmaa9NIRwxJ5UjIdZspLmO2POKaZS0KyxvHzA3PEsBWnh1yJgattGaJNdSkETfpnzn&#xA;PHP8dnpS/uoTuplqByI8a1+4ZafTDzLhRPi6gg/TD72UXFvDcQtDMgkicUZT0ygGnYyiCKKUQ6e9&#xA;n5WurOarcI7oVY8iyM8jKSfdSDlhlcwfc4scfDhMT/S/SgvLF5psPk63W9kjEXGYSRuRVgZX249T&#xA;XJ5Ykz2adJOAwDiO2/3lU8hW1/BohF2rIrys0CPUEIQOx6Ampwaggy2ZdnQlHH6u/ZC69NBB520m&#xA;aZ1ijWJucjkKoHxgVJ+eSxgnGWvUSEdRAnbb9adJLp+r3IeB0kOnyo8dxGQ4JZfiUEex33yqjEe9&#xA;ywYZDY34TzR93crbW0s7AkRqSFHUnso9ydsgBZbpy4RbFdK+s6P5qe0u5C6atGJeZ6euN2A+nkB9&#xA;GZE6lCx0ddivFm4ZH69/j+P0MnhsYYru4uwKzXPHm1NwqKFC/wAcoMtqdhHGBIy6ljuj/wDKdax/&#xA;xiX9SZdP+7Dg4P8AGZ+79TI0soUvZbtRSSZFjk9whJBP/BZRxbU5wgBIy72N/l6qixvqAD/SmH0B&#xA;Rl+o5j3OB2b9Mv6yzguiecwQAllq60HYCWv/ADV/xLD9ePziivC1H9Gf3/j70/1oCWz+pD7d8fq4&#xA;9lYEyN/sUDH55TDnfc5ufePD/O2/X9iC8128MXlW7hjQLFFGgjQDYBXWlMlhPrDTrIgYSBypZpWs&#xA;aUdI0uy9aG4lmihge3DqzD92OXJd+lN64ZwPESjDmhwRjYJIAr4Jh+iIf0P+i+Z9Hh6XLvwr0+7b&#xA;Icfqtv8ABHBwdF+sWbXulXdqmzzRMqf61NvxwQlRBTnhxwMe8MT/AC1CxyalC4K3AMfJDsaKXB29&#xA;id8ydV0dZ2VtxA89v0s4zEdwxnVba9in1DUNKnSVKcdS06YVRykYrQ9iUpl8CNgfgXAzQkDKUDf8&#xA;6J936m9UnWe/8tTheAlcuEPUBo1NPorjAUJLmlcsZ7/1KkqqfPkJIBK6eStex9Vht9GAf3fxSf8A&#xA;GR/U/S5FQ+fXJAJXT6qT2PqgVH0HH/J/FQP8J/zP0qlkV/xhqQHX6vDy+f8AtYy+gMsf9/L3BT8m&#xA;lfT1UAjmNQnJHehC0/jjm6e5jof4/wCuUNpZB1DzNPF/vGTQMPsmRUb1CPp65KfKPeww/XlI+n9N&#xA;boK85f4P0RzX6qk0JuipIogJFSR75OP1yaZ/3EO6xbJptJ0oy21xPzeSGQG2Z5pno5IpQFzWtMxx&#xA;M8nYSwwsE9OW5SK2ro/nO5N18FrqgrBMdl51B4k9t6j7suPqxiuYcOP7rUG+U+TK554YImmmcRxI&#xA;Ks7bADMcC3ZSkALKUQ6i195Xur2X4Ocd1QMKFVVpFUH3CgZYY1MD3OLHLx4TI/0v0pFpWgx6l5Ps&#xA;5rWkWp25keCddm5LKxCsw8fwy6eThmb5OHh04yYIkbTF0finnljzANTtjBc/u9St/guYTsSRtyA/&#xA;X4HKcuPhO3JzNJqfEFH6xzS/WWX/AB1o4qK+k3486ZOH92WjP/jMPd+tONTurLR7W81FqLJKAeBo&#xA;OcirxUD598riDIgOVlnHFEzavXW7vrbTi/BkX63cKpHIBCBGN6/tnl/scY7C1meKQj8f1fb9yV+c&#xA;tJl/Rq6hDNI9zp7iaMvxNBUcqUA8AfoyzDPeu9x9dhPBxA7x3T7StQi1DT4LyOnGZASB2boy/Qds&#xA;pnHhNOZhyCcRIdWPaMy/461gVFfSX8OFcun/AHYcHB/jM/d+pleY7smKfl6ymxvqEH/SmP0FRmRq&#xA;OY9zrezfpl/WR/nLTGvdGd4q/WbQ+vCw6/D9oD6PxyGGVS97drsXHj25x3b8vXzaukWpOpURRCFQ&#xA;dgZTQzMPbZQPpxyR4dk6bJ4oE/Kvj1XecWA8tX1TSqqBXxLrjh+sJ139zJU0eC3udC0l3FfQhhkR&#xA;ttmSMA4JkiRTgiJY4eQH3KH+KbTl6vJPqP1z6l9Y5bV9Hnzr048tq+G+Hwj8atj+bjz/AIeLhv4W&#xA;nmVOWkep+XZTfjVdJlW11ECkisKxSjwcDcV8ctjk24ZcnDy6Y8XHA1P7Cj9NutTm5pf2f1WRKUdZ&#xA;FkR/dafEPkRkZADkW/FOZ+oUuk0nTpJJJHgBaX++3ID7Uo4Bow9jgEyk4Yk3XN1xpOmXEqyz2sck&#xA;i0CuygkU6U8MRMjqssMJGyA46TphuRdG2jNyDyE3Ec6j3x4zVWvgwvioW2ulaat0btbaMXRJYzBR&#xA;zqeu+PGapfChxcVC1v6N0mCZr0wRRTCrPcEBT7ktjxE7I8KAPFQvvY95Ug0u+TU1cpJKb2Zxwcq5&#xA;ibjQ1UhuJ+7L8xIr3OFoxCfF/WPyZINM09bT6mLeMWv++eI4/SMo4jdud4UeHhrZuHTbCCB7eK3j&#xA;SCSoeIKOJr1qvTEyJNpjiiBQGy230yxtnDwxBWUUTckKP8kEkL9GJkSiOKMeQVbm1trqIw3MSzRH&#xA;qjgMPxwAkcmUoCQoiwoQ6NpkLIyQCsZrHyJcIf8AJDE8fowmZLCOGA6Kk+nWFxGIpreN4wWbgVHG&#xA;rGrGniSanESIZSxxIohq00vTrMlrW3jgJ68FC/qxMieaIYox+kUtl0jS5bn6zJaxNcbH1io51Gw3&#xA;64iZqrQcMCbIFrH0LRnl9V7OFpSa+oUBavjXD4ku9B0+Mm6Ful0LR5TWWzikI6FlDfrxGSQ6rLTw&#xA;PMBeuk6Yt0btbWMXJYsZgo51PU1wcZqrZDDAHioWq3VnaXcfp3MSzIN+Lio+44BIjkynASFEWp2+&#xA;l6dbRyR29tHFHLT1FRQoanjTCZk82McUYigKUl0HRUf1FsoVk/nCAH78PiS72I0+MG+EIue3huIz&#xA;FMgkjPVW3ByINNsogiioWukaXaSepbWsUMn8yKFP4YTMnmWuGGETYACLyLapWtpb2kC29tGIoUrx&#xA;Regqan8ThJJ3LGEBEUOSy706wvKfWoEnC/ZEihqffhEiOSJ4oy+oWpDRNIEXpC0iEX+++I4/d0w8&#xA;cu9j4EKqhTf6G0n6t9V+pxfVuXqejwHHnSnKnjTBxyu7XwIVw0Kf/9k=</xmpGImg:image>
               </rdf:li>
            </rdf:Alt>
         </xmp:Thumbnails>
      </rdf:Description>
      <rdf:Description rdf:about=""
            xmlns:xmpMM="http://ns.adobe.com/xap/1.0/mm/"
            xmlns:stRef="http://ns.adobe.com/xap/1.0/sType/ResourceRef#"
            xmlns:stEvt="http://ns.adobe.com/xap/1.0/sType/ResourceEvent#">
         <xmpMM:InstanceID>xmp.iid:138BF5B1D189E41185F4A91FC5CC54D3</xmpMM:InstanceID>
         <xmpMM:DocumentID>xmp.did:138BF5B1D189E41185F4A91FC5CC54D3</xmpMM:DocumentID>
         <xmpMM:OriginalDocumentID>uuid:5D20892493BFDB11914A8590D31508C8</xmpMM:OriginalDocumentID>
         <xmpMM:RenditionClass>proof:pdf</xmpMM:RenditionClass>
         <xmpMM:DerivedFrom rdf:parseType="Resource">
            <stRef:instanceID>uuid:0e057bd6-c5e6-4715-bab3-854f1e198ac8</stRef:instanceID>
            <stRef:documentID>xmp.did:A8C63DDD92ABE311B36BCB0570228406</stRef:documentID>
            <stRef:originalDocumentID>uuid:5D20892493BFDB11914A8590D31508C8</stRef:originalDocumentID>
            <stRef:renditionClass>proof:pdf</stRef:renditionClass>
         </xmpMM:DerivedFrom>
         <xmpMM:History>
            <rdf:Seq>
               <rdf:li rdf:parseType="Resource">
                  <stEvt:action>saved</stEvt:action>
                  <stEvt:instanceID>xmp.iid:F77F117407206811822AB1CB6D770341</stEvt:instanceID>
                  <stEvt:when>2012-11-21T18:08:24+01:00</stEvt:when>
                  <stEvt:softwareAgent>Adobe Illustrator CS5</stEvt:softwareAgent>
                  <stEvt:changed>/</stEvt:changed>
               </rdf:li>
               <rdf:li rdf:parseType="Resource">
                  <stEvt:action>saved</stEvt:action>
                  <stEvt:instanceID>xmp.iid:138BF5B1D189E41185F4A91FC5CC54D3</stEvt:instanceID>
                  <stEvt:when>2014-12-22T12:58:11+01:00</stEvt:when>
                  <stEvt:softwareAgent>Adobe Illustrator CS6 (Windows)</stEvt:softwareAgent>
                  <stEvt:changed>/</stEvt:changed>
               </rdf:li>
            </rdf:Seq>
         </xmpMM:History>
      </rdf:Description>
      <rdf:Description rdf:about=""
            xmlns:illustrator="http://ns.adobe.com/illustrator/1.0/">
         <illustrator:StartupProfile>Print</illustrator:StartupProfile>
      </rdf:Description>
      <rdf:Description rdf:about=""
            xmlns:xmpTPg="http://ns.adobe.com/xap/1.0/t/pg/"
            xmlns:stDim="http://ns.adobe.com/xap/1.0/sType/Dimensions#"
            xmlns:xmpG="http://ns.adobe.com/xap/1.0/g/">
         <xmpTPg:HasVisibleOverprint>False</xmpTPg:HasVisibleOverprint>
         <xmpTPg:HasVisibleTransparency>False</xmpTPg:HasVisibleTransparency>
         <xmpTPg:NPages>1</xmpTPg:NPages>
         <xmpTPg:MaxPageSize rdf:parseType="Resource">
            <stDim:w>497.416667</stDim:w>
            <stDim:h>160.161111</stDim:h>
            <stDim:unit>Millimeters</stDim:unit>
         </xmpTPg:MaxPageSize>
         <xmpTPg:PlateNames>
            <rdf:Seq>
               <rdf:li>Cyan</rdf:li>
               <rdf:li>Magenta</rdf:li>
               <rdf:li>Yellow</rdf:li>
               <rdf:li>Black</rdf:li>
            </rdf:Seq>
         </xmpTPg:PlateNames>
         <xmpTPg:SwatchGroups>
            <rdf:Seq>
               <rdf:li rdf:parseType="Resource">
                  <xmpG:groupName>Default Swatch Group</xmpG:groupName>
                  <xmpG:groupType>0</xmpG:groupType>
               </rdf:li>
               <rdf:li rdf:parseType="Resource">
                  <xmpG:groupName>Artworxx</xmpG:groupName>
                  <xmpG:groupType>1</xmpG:groupType>
                  <xmpG:Colorants>
                     <rdf:Seq>
                        <rdf:li rdf:parseType="Resource">
                           <xmpG:swatchName>White</xmpG:swatchName>
                           <xmpG:mode>CMYK</xmpG:mode>
                           <xmpG:type>PROCESS</xmpG:type>
                           <xmpG:cyan>0.000000</xmpG:cyan>
                           <xmpG:magenta>0.000000</xmpG:magenta>
                           <xmpG:yellow>0.000000</xmpG:yellow>
                           <xmpG:black>0.000000</xmpG:black>
                        </rdf:li>
                        <rdf:li rdf:parseType="Resource">
                           <xmpG:swatchName>Artworxx türkiz</xmpG:swatchName>
                           <xmpG:mode>CMYK</xmpG:mode>
                           <xmpG:type>PROCESS</xmpG:type>
                           <xmpG:cyan>58.000000</xmpG:cyan>
                           <xmpG:magenta>2.999997</xmpG:magenta>
                           <xmpG:yellow>22.000004</xmpG:yellow>
                           <xmpG:black>0.000000</xmpG:black>
                        </rdf:li>
                        <rdf:li rdf:parseType="Resource">
                           <xmpG:swatchName>Artworxx barna</xmpG:swatchName>
                           <xmpG:mode>CMYK</xmpG:mode>
                           <xmpG:type>PROCESS</xmpG:type>
                           <xmpG:cyan>44.000000</xmpG:cyan>
                           <xmpG:magenta>58.999996</xmpG:magenta>
                           <xmpG:yellow>100.000000</xmpG:yellow>
                           <xmpG:black>35.000004</xmpG:black>
                        </rdf:li>
                     </rdf:Seq>
                  </xmpG:Colorants>
               </rdf:li>
            </rdf:Seq>
         </xmpTPg:SwatchGroups>
      </rdf:Description>
      <rdf:Description rdf:about=""
            xmlns:pdf="http://ns.adobe.com/pdf/1.3/">
         <pdf:Producer>Adobe PDF library 10.01</pdf:Producer>
      </rdf:Description>
   </rdf:RDF>
</x:xmpmeta>
                                                                                                    
                                                                                                    
                                                                                                    
                                                                                                    
                                                                                                    
                                                                                                    
                                                                                                    
                                                                                                    
                                                                                                    
                                                                                                    
                                                                                                    
                                                                                                    
                                                                                                    
                                                                                                    
                                                                                                    
                                                                                                    
                                                                                                    
                                                                                                    
                                                                                                    
                                                                                                    
                           
<?xpacket end="w"?>
	</metadata>
<g>
	<g>
		<path fill="#FFFFFF" d="M23.735,233.234v-8.123c14.024-2.359,25.412-7.672,34.159-15.934c8.748-8.262,13.123-17.67,13.123-28.223
			c0-7.219-1.667-17.842-4.999-31.869c-3.196-12.912-4.791-24.16-4.791-33.742c0-20.688,7.579-38.809,22.745-54.361
			c15.166-15.551,33.759-24.715,55.779-27.494v8.123c-16.178,2.496-28.275,8.631-36.294,18.404
			c-8.019,9.773-12.029,20.344-12.029,31.709c0,8.598,1.319,19.064,3.958,31.398c2.916,14.697,4.375,26.549,4.375,35.559
			c0,16.635-5.695,30.912-17.08,42.834c-11.386,11.924-25.342,20.934-41.865,27.031c18.33,6.949,32.77,16.777,43.324,29.49
			c10.551,12.711,15.83,26.572,15.83,41.574c0,8.475-1.529,20.145-4.583,35.012c-2.5,12.504-3.749,22.92-3.749,31.26
			c0,26.396,16.106,43.625,48.322,51.684v7.289c-22.219-2.498-40.824-11.699-55.82-27.598c-14.997-15.9-22.495-33.846-22.495-53.842
			c0-9.443,1.458-20.41,4.374-32.908c3.469-14.58,5.207-25.271,5.207-32.076c0-9.998-3.889-19.336-11.665-28.014
			C51.782,241.74,39.841,236.014,23.735,233.234z"/>
	</g>
	<g>
		<g>
			<g>
				<g>
					<path fill="#FFFFFF" d="M328.875,223.584c-3.527,2.104-29.353,15.07-29.706-4.99c0-31.553-0.265-109.107-0.265-109.107
						s0.302-4.184-1.627-9.93c-4.355-12.98-18.387-33.938-60.862-32.479c-61.26,2.102-60.793,57.301-39.522,58.447
						c21.233,1.141,17.878-16.299,16.036-23.133c-1.838-6.836-3.614-18.721,7.764-26.223c0,0,5.561-3.813,13.013-5.049
						c8.889-1.475,20.551,0.426,29.701,12.869c11.045,11.566,8.15,53.361-4.996,59.145c-36.013,21.557-88.07,12.885-86.759,58.367
						c1.315,45.482,83.083,48.377,95.442,5.783c0,21.225,26.247,41.018,60.897,21.201
						C331.88,226.324,331.272,222.154,328.875,223.584z M259.855,215.039c-3.324,4.488-6.979,7.42-12.146,10.648
						c-4.751,2.969-11.723,4.932-18.17,5.057c-13.525,0.275-27.391-7.494-27.391-30.818c0-34.441,25.24-39.959,44.176-46.535
						c18.924-6.568,22.084-14.195,22.084-14.195C268.917,190.564,265.996,206.744,259.855,215.039z M461.495,70.424
						c-40.044-7.959-56.638,32.494-58.48,41.166c0-24.186,0-38.113,0-38.113s-56.864,0.025-59.387,0.025
						c-2.523,0-3.619,4.387,0.859,4.387c6.015,0,28.03,0.051,28.03,0.051v148.273c0,0-25.134,0-27.867,0
						c-2.729,0-3.683,4.465,0,4.732c3.677,0.266,88.347,0,90.702,0c2.357,0,2.369-4.99-1.045-4.99c-3.436,0-31.025,0-31.025,0
						v-98.326c0,0,2.251-43.363,40.372-52.828c14.313-3.174,20.247,8.908,12.624,22.482c-5.544,9.877-5.748,23.244,12.204,23.244
						C488.885,120.527,496.462,78.666,461.495,70.424z M601.521,73.477c-6.572,0-51.532,0-51.532,0V22.471
						c0,0-7.63,11.307-32.079,3.682v46.531c0,0-23.6,0-26.813,0c-3.216,0-4.469,4.73,0.525,4.994c4.993,0.262,26.289,0,26.289,0
						v120.93c0,0-2.63,34.182,31.554,37.078c21.108,1.977,32.927-0.861,36.317-3.859c1.556-1.377,2.104-4.518-0.562-3.77
						c-4.203,1.578-34.967,9.961-34.967-14.721c-0.263-41.018,0-135.396,0-135.396s49.422,0,51.799,0
						C604.429,77.939,604.94,73.68,601.521,73.477z"/>
				</g>
			</g>
			<g>
				<g>
					<path fill="#FFFFFF" d="M652.361,235.182h-12.096l-16.543-49.215l-16.407,49.215h-12.231l-21.823-70.482h15.009l13.626,49.629
						l16.403-49.629h10.981l16.269,49.629l13.625-49.629h15.151L652.361,235.182z"/>
					<path fill="#FFFFFF" d="M741.052,199.873c0,6.109-0.556,11.396-1.667,15.848c-1.11,4.443-3.336,8.434-6.671,11.951
						c-2.317,2.414-5.213,4.406-8.691,5.977c-3.475,1.576-7.622,2.369-12.443,2.369c-4.816,0-8.944-0.793-12.366-2.369
						c-3.432-1.57-6.31-3.563-8.623-5.977c-3.336-3.518-5.56-7.508-6.677-11.951c-1.111-4.451-1.666-9.738-1.666-15.848
						c0-5.932,0.555-11.145,1.666-15.646c1.117-4.494,3.34-8.5,6.677-12.02c2.313-2.414,5.19-4.406,8.623-5.982
						c3.421-1.57,7.549-2.363,12.366-2.363c4.821,0,8.969,0.793,12.443,2.363c3.478,1.576,6.374,3.568,8.691,5.982
						c3.335,3.52,5.561,7.525,6.671,12.02C740.496,188.729,741.052,193.941,741.052,199.873z M726.874,199.873
						c0-3.895-0.276-7.553-0.833-10.988c-0.559-3.43-1.903-6.207-4.032-8.34c-2.691-2.688-6.165-4.035-10.43-4.035
						c-4.168,0-7.597,1.348-10.285,4.035c-2.133,2.133-3.473,4.91-4.028,8.34c-0.56,3.436-0.837,7.094-0.837,10.988
						c0,3.887,0.277,7.553,0.837,10.982c0.556,3.428,1.896,6.205,4.028,8.338c2.784,2.785,6.208,4.17,10.285,4.17
						c4.173,0,7.65-1.385,10.43-4.17c2.129-2.133,3.473-4.91,4.032-8.338C726.598,207.426,726.874,203.76,726.874,199.873z"/>
					<path fill="#FFFFFF" d="M799.026,181.242c-1.577-1.578-3.128-2.762-4.657-3.547s-3.5-1.186-5.909-1.186
						c-3.893,0-7.21,1.393-9.938,4.178c-2.739,2.775-4.103,6.67-4.103,11.678v42.816h-14.18v-70.482h13.903v7.643
						c1.852-2.504,4.447-4.541,7.783-6.117c3.336-1.57,7-2.363,10.985-2.363c3.428,0,6.482,0.512,9.174,1.525
						c2.688,1.021,5.235,2.74,7.642,5.146L799.026,181.242z"/>
					<path fill="#FFFFFF" d="M859.777,235.182l-14.735-24.053l-14.878,24.053h-17.097l24.188-36.004l-23.218-34.479h17.097
						l13.907,22.934l13.766-22.934h17.098l-23.082,34.479l24.052,36.004H859.777z"/>
					<path fill="#FFFFFF" d="M929.703,235.182l-14.735-24.053l-14.877,24.053h-17.098l24.184-36.004l-23.215-34.479h17.099
						l13.907,22.934l13.763-22.934h17.101l-23.081,34.479l24.051,36.004H929.703z"/>
				</g>
			</g>
		</g>
		<g>
			<path fill="#FFFFFF" d="M173.448,398.49v-21.037h3.048c3.542,12.148,9.872,18.223,18.989,18.223c3.958,0,6.916-1.199,8.869-3.598
				s2.93-5.031,2.93-7.898c0-3.336-1.042-6.074-3.125-8.213c-2.137-2.137-6.278-4.717-12.425-7.742
				c-6.46-3.18-11.096-6.307-13.91-9.385c-2.813-3.021-4.219-6.75-4.219-11.184c0-4.223,1.51-8.25,4.532-12.082
				c3.021-3.832,7.267-5.748,12.737-5.748c5.574,0,10.184,2.268,13.831,6.803c0.781-0.781,1.797-2.684,3.047-5.707h2.892v19.785
				h-2.892c-1.042-4.744-3.061-8.824-6.056-12.238c-2.997-3.416-6.526-5.123-10.588-5.123c-3.126,0-5.653,0.965-7.58,2.893
				c-1.928,1.93-2.891,4.172-2.891,6.727c0,2.814,1.067,5.24,3.204,7.273c2.083,2.086,6.068,4.457,11.956,7.117
				c8.856,4.014,14.273,7.926,16.254,11.73c1.979,3.859,2.97,7.561,2.97,11.104c0,5.58-1.837,10.117-5.509,13.609
				c-3.673,3.492-8.297,5.24-13.871,5.24c-5.888,0-11.123-2.426-15.707-7.273c-1.407,1.564-2.553,3.805-3.438,6.725H173.448z"/>
			<path fill="#FFFFFF" d="M246.121,329.826v44.656c0,6.83,0.104,11.131,0.313,12.902c0.208,1.773,0.964,3.129,2.266,4.066
				c1.302,0.939,3.621,1.408,6.955,1.408h1.641v3.598h-34.461v-3.598h2.656c3.699,0,6.106-0.533,7.228-1.604
				c1.12-1.066,1.771-2.346,1.954-3.832s0.274-5.799,0.274-12.941v-19.396c0-7.508-0.352-12.094-1.055-13.764
				c-0.703-1.668-1.64-2.711-2.813-3.129c-1.173-0.416-3.218-0.625-6.135-0.625h-2.109v-3.598
				c9.271-0.938,16.461-2.318,21.567-4.145H246.121z M231.04,297.137c0-2.242,0.793-4.172,2.383-5.787
				c1.589-1.615,3.502-2.426,5.744-2.426c2.24,0,4.142,0.811,5.705,2.426c1.563,1.615,2.344,3.545,2.344,5.787
				c0,2.295-0.781,4.25-2.344,5.865c-1.563,1.617-3.465,2.424-5.705,2.424c-2.241,0-4.155-0.807-5.744-2.424
				C231.833,301.387,231.04,299.432,231.04,297.137z"/>
			<path fill="#FFFFFF" d="M282.781,329.826h0.779c1.504,3.494,2.258,7.977,2.258,13.451c3.483-4.484,7.24-7.846,11.271-10.088
				s8.36-3.363,12.989-3.363c5.252,0,9.516,1.199,12.792,3.598c3.276,2.398,5.564,5.996,6.865,10.793
				c3.958-4.797,8.022-8.395,12.19-10.793c4.167-2.398,8.413-3.598,12.737-3.598c4.949,0,9.143,1.146,12.582,3.441
				c3.438,2.295,5.521,4.9,6.251,7.82c0.729,2.92,1.094,7.639,1.094,14.154v19.24c0,7.455,0.143,11.99,0.429,13.607
				c0.287,1.615,1.121,2.814,2.501,3.598c1.379,0.781,3.945,1.172,7.697,1.172v3.598h-31.961v-3.598c3.386,0,5.769-0.377,7.15-1.135
				c1.379-0.758,2.227-1.906,2.539-3.445c0.313-1.541,0.469-6.148,0.469-13.822v-21.379c0-4.334-0.248-7.596-0.742-9.789
				c-0.496-2.193-1.785-4.072-3.868-5.639c-2.084-1.566-4.793-2.35-8.126-2.35c-3.387,0-6.788,1.152-10.198,3.461
				c-3.413,2.307-6.838,5.793-10.276,10.459v25.262c0,6.83,0.09,11.117,0.273,12.863c0.182,1.748,0.911,3.104,2.188,4.068
				c1.276,0.965,3.556,1.445,6.837,1.445v3.598h-30.867v-3.598c3.491,0,5.926-0.363,7.307-1.094c1.38-0.73,2.239-1.852,2.579-3.363
				c0.337-1.512,0.508-6.152,0.508-13.92v-17.754c0-5.631-0.222-9.709-0.665-12.238c-0.443-2.529-1.785-4.693-4.024-6.492
				c-2.24-1.799-5.028-2.697-8.361-2.697c-3.231,0-6.525,1.043-9.886,3.127c-3.359,2.088-6.786,5.215-10.275,9.385v26.67
				c0,7.037,0.104,11.418,0.313,13.137c0.208,1.721,0.989,3.025,2.344,3.91c1.354,0.889,3.777,1.33,7.267,1.33v3.598h-31.257v-3.598
				c3.411,0,5.803-0.377,7.173-1.133c1.37-0.756,2.209-1.891,2.52-3.402c0.31-1.512,0.465-6.125,0.465-13.842V355.32
				c0-7.299-0.117-11.77-0.349-13.412c-0.233-1.643-1.034-2.879-2.405-3.715c-1.369-0.832-3.838-1.25-7.404-1.25v-3.598
				C271.855,332.615,277.954,331.443,282.781,329.826z"/>
			<path fill="#FFFFFF" d="M408.502,329.826h2.111c0.885,2.92,1.329,6.439,1.329,10.557c3.333-3.545,6.916-6.189,10.744-7.938
				c3.83-1.746,7.879-2.619,12.152-2.619c8.855,0,16.227,3.115,22.115,9.346c5.886,6.23,8.83,14.455,8.83,24.674
				c0,10.01-2.958,18.379-8.87,25.104c-5.913,6.727-13.688,10.09-23.326,10.09c-3.959,0-7.749-0.797-11.37-2.387
				c-3.622-1.59-7.046-3.949-10.275-7.078v24.322c0,7.404,0.143,11.914,0.43,13.531c0.286,1.615,1.106,2.826,2.461,3.635
				c1.354,0.809,3.88,1.213,7.58,1.213v3.598h-33.445v-3.598h2.344c3.698,0,6.106-0.535,7.228-1.604
				c1.12-1.068,1.77-2.346,1.954-3.832c0.182-1.484,0.273-5.801,0.273-12.943v-58.184c0-6.83-0.091-11.131-0.273-12.904
				c-0.184-1.771-0.925-3.129-2.228-4.066c-1.302-0.939-3.621-1.408-6.954-1.408h-2.344v-3.598
				C394.125,333.215,400.637,331.912,408.502,329.826z M411.942,384.492c2.813,3.416,5.795,5.99,8.947,7.723
				c3.151,1.734,6.472,2.6,9.963,2.6c5.887,0,11.018-2.527,15.394-7.586c4.377-5.057,6.565-13.111,6.565-24.164
				c0-9.594-2.11-16.762-6.33-21.508c-4.22-4.744-9.248-7.117-15.083-7.117c-3.594,0-7.006,0.914-10.235,2.738
				c-3.231,1.824-6.305,4.588-9.221,8.289V384.492z"/>
			<path fill="#FFFFFF" d="M496.571,288.924v85.559c0,6.83,0.09,11.131,0.273,12.902c0.182,1.773,0.924,3.129,2.227,4.066
				c1.302,0.939,3.621,1.408,6.955,1.408h1.875v3.598h-34.149v-3.598h2.188c3.125,0,5.353-0.43,6.681-1.289
				c1.329-0.861,2.122-2.072,2.384-3.637c0.26-1.564,0.391-6.049,0.391-13.451v-63.348c0-6.725-0.6-10.961-1.797-12.709
				c-1.199-1.746-4.116-2.619-8.752-2.619v-3.598c3.165,0,6.889-0.365,11.169-1.096c4.281-0.729,7.226-1.457,8.835-2.189H496.571z"
				/>
			<path fill="#FFFFFF" d="M574.402,354.148h-44.698c-0.209,3.07-0.313,5.359-0.313,6.867c0,11.242,1.762,19.686,5.287,25.332
				c3.523,5.645,8.785,8.467,15.784,8.467c9.503,0,16.239-4.248,20.209-12.746h3.731c-1.67,5.316-4.983,9.475-9.938,12.473
				c-4.956,2.998-10.355,4.498-16.198,4.498c-5.425,0-10.55-1.369-15.376-4.107c-4.824-2.736-8.776-6.607-11.854-11.613
				s-4.617-11.078-4.617-18.223c0-10.113,2.974-18.52,8.922-25.221c5.945-6.699,13.379-10.049,22.299-10.049
				c8.398,0,14.895,2.564,19.485,7.689S574.141,348.186,574.402,354.148z M560.727,350.941c0.156-1.199,0.233-2.268,0.233-3.207
				c0-4.586-1.345-8.145-4.034-10.674c-2.689-2.529-5.993-3.793-9.909-3.793c-9.506,0-15.172,5.893-17,17.674H560.727z"/>
			<path fill="#FFFFFF" d="M681.615,356.65h3.358v37.148h-3.358c-0.931-4.225-2.611-7.951-5.041-11.184
				c-9.329,10.531-21.239,15.797-35.727,15.797c-15.325,0-27.845-4.848-37.565-14.545c-9.721-9.697-14.581-22.523-14.581-38.479
				c0-10.479,2.241-20.346,6.724-29.602c4.482-9.254,10.736-16.121,18.762-20.605c8.027-4.484,16.835-6.727,26.425-6.727
				c7.922,0,15.101,1.631,21.537,4.889c6.438,3.258,11.246,6.869,14.425,10.83c2.219-4.43,3.561-9.02,4.025-13.764h3.438
				l0.937,40.197h-3.358c-2.345-14.293-7.125-24.227-14.34-29.803c-7.216-5.574-15.354-8.361-24.419-8.361
				c-11.096,0-19.914,4.51-26.452,13.529c-6.539,9.021-9.807,21.926-9.807,38.713c0,15.902,3.568,28.088,10.706,36.561
				c7.137,8.473,16.019,12.709,26.647,12.709c5.677,0,11.486-1.381,17.426-4.145c5.939-2.764,10.64-7.441,14.105-14.039
				C678.944,369.178,680.989,362.803,681.615,356.65z"/>
			<path fill="#FFFFFF" d="M811.88,396.457h-28.522c-5.054-3.545-12.79-12.826-23.208-27.84c-3.335-4.797-6.799-9.398-10.394-13.805
				c-3.594-4.404-6.07-7.09-7.424-8.055c-1.355-0.965-3.465-1.447-6.33-1.447h-4.219v23.539c0,8.344,0.195,13.805,0.586,16.385
				c0.391,2.582,1.432,4.498,3.126,5.748c1.691,1.252,4.935,1.877,9.729,1.877h5.08v3.598h-50.715v-3.598h3.438
				c4.532,0,7.67-0.572,9.417-1.721c1.745-1.146,2.852-2.932,3.321-5.357c0.469-2.424,0.703-8.066,0.703-16.932v-52.006
				c0-8.445-0.234-13.895-0.703-16.346c-0.469-2.449-1.511-4.145-3.126-5.082c-1.615-0.939-5.106-1.408-10.47-1.408h-1.798v-3.598
				l15.16-0.781c10.106-0.471,18.129-0.705,24.068-0.705c10.105,0,18.324,0.939,24.654,2.816c6.33,1.877,11.448,4.953,15.355,9.229
				c3.907,4.275,5.861,9.385,5.861,15.328c0,6.934-2.554,12.852-7.658,17.752c-5.106,4.902-12.608,7.951-22.506,9.15
				c4.433,2.137,11.57,9.852,21.414,23.148c8.021,10.793,14.324,17.859,18.908,21.193c4.584,3.338,10.002,5.111,16.254,5.318
				V396.457z M731.783,341.713c3.907-0.104,7.943-0.26,12.112-0.469c4.167-0.207,7.787-0.783,10.862-1.721
				c3.073-0.939,5.561-2.307,7.462-4.105s3.4-4.158,4.494-7.078c1.093-2.92,1.641-6.516,1.641-10.793
				c0-7.455-1.863-13.424-5.588-17.908c-3.724-4.484-11.838-6.727-24.34-6.727c-1.928,0-4.142,0.105-6.642,0.314V341.713z"/>
			<path fill="#FFFFFF" d="M903.543,363.455h3.751l-2.306,33.002h-87.716v-3.598h2.188c5.261,0,8.66-0.703,10.197-2.111
				c1.536-1.408,2.513-3.193,2.931-5.357c0.416-2.162,0.625-7.676,0.625-16.541v-52.006c0-8.08-0.222-13.398-0.664-15.953
				c-0.443-2.555-1.459-4.342-3.047-5.357c-1.59-1.018-4.937-1.525-10.042-1.525v-3.598h75.799l2.423,26.434h-3.596
				c-1.668-7.402-3.71-12.656-6.133-15.758c-2.423-3.102-5.302-5.057-8.635-5.865c-3.335-0.809-8.701-1.213-16.099-1.213h-14.69
				v44.498h11.285c5.173,0,8.791-0.441,10.854-1.328s3.42-2.229,4.074-4.027s0.98-5.305,0.98-10.52h3.595v36.287h-3.595
				c0-5.891-0.497-9.84-1.489-11.848c-0.992-2.006-2.442-3.311-4.349-3.91c-1.908-0.6-5.133-0.898-9.679-0.898h-11.677v25.104
				c0,12.564,0.806,19.955,2.418,22.17c1.612,2.217,5.956,3.324,13.032,3.324h7.881c5.566,0,10.145-0.709,13.734-2.131
				c3.59-1.42,7.01-4.359,10.261-8.818C899.106,377.453,901.668,371.303,903.543,363.455z"/>
			<path fill="#FFFFFF" d="M981.387,357.355h-40.289l-2.783,6.725c-4.063,9.75-6.094,16.109-6.094,19.082
				c0,3.182,1.08,5.592,3.243,7.234c2.16,1.643,4.935,2.463,8.321,2.463v3.598h-31.491v-3.598c4.688-0.729,8.178-2.381,10.471-4.959
				c2.293-2.576,5.053-8.002,8.283-16.279c0.317-0.779,1.579-3.811,3.788-9.09l30.791-73.607h3.011l35.473,84.227l4.854,11.105
				c1.087,2.504,2.548,4.471,4.385,5.906c1.836,1.434,4.592,2.334,8.266,2.697v3.598h-41.571v-3.598
				c5.105,0,8.557-0.377,10.354-1.133s2.696-2.256,2.696-4.498c0-1.146-1.199-4.561-3.595-10.244L981.387,357.355z M979.933,353.836
				l-18.681-45.205l-18.7,45.205H979.933z"/>
			<path fill="#FFFFFF" d="M1016.381,315.904h-3.596l0.549-25.494h102.915l0.547,25.494h-3.362
				c-1.197-6.984-2.839-12.029-4.921-15.131c-2.084-3.102-4.325-5.006-6.72-5.709c-2.397-0.705-6.487-1.057-12.27-1.057h-17.035
				v74.842c0,8.291,0.195,13.74,0.586,16.346c0.391,2.607,1.445,4.537,3.165,5.787c1.72,1.252,4.948,1.877,9.689,1.877h5.157v3.598
				h-52.904v-3.598h5.471c4.533,0,7.672-0.572,9.416-1.721c1.745-1.146,2.865-2.932,3.361-5.357
				c0.494-2.424,0.742-8.066,0.742-16.932v-74.842h-15.707c-6.825,0-11.408,0.326-13.753,0.977
				c-2.345,0.654-4.544,2.621-6.604,5.906C1019.049,304.174,1017.475,309.18,1016.381,315.904z"/>
			<path fill="#FFFFFF" d="M1124.531,294.008v-3.598h48.45v3.598h-2.267c-5.21,0-8.623,0.43-10.237,1.291
				c-1.615,0.859-2.695,2.463-3.243,4.809c-0.547,2.348-0.819,7.926-0.819,16.736v52.006c0,8.344,0.195,13.805,0.587,16.385
				c0.39,2.582,1.431,4.498,3.125,5.748c1.691,1.252,4.935,1.877,9.729,1.877h3.126v3.598h-48.45v-3.598h3.126
				c4.533,0,7.671-0.572,9.417-1.721c1.744-1.146,2.853-2.932,3.32-5.357c0.47-2.424,0.703-8.066,0.703-16.932v-52.006
				c0-8.445-0.233-13.895-0.703-16.346c-0.468-2.449-1.511-4.145-3.126-5.082c-1.616-0.939-5.105-1.408-10.471-1.408H1124.531z"/>
			<path fill="#FFFFFF" d="M1239.373,399.039h-4.748l-36.518-84.42c-0.676-1.51-1.742-4.113-3.197-7.807
				c-2.029-4.996-4.16-8.354-6.397-10.07c-2.237-1.719-5.852-2.629-10.843-2.734v-3.598h45.558v3.598
				c-5.7,0-9.528,0.418-11.483,1.25c-1.956,0.836-2.935,2.426-2.935,4.771c0,1.514,1.224,5.059,3.673,10.637l30.477,70.449
				l24.459-58.641c4.113-9.801,6.173-16.189,6.173-19.16c0-5.996-4.233-9.098-12.698-9.307v-3.598h32.273v3.598
				c-3.281,0.105-6.171,1.277-8.671,3.52s-4.661,5.527-6.483,9.855l-7.107,16.66L1239.373,399.039z"/>
			<path fill="#FFFFFF" d="M1385.063,363.455h3.751l-2.305,33.002h-87.716v-3.598h2.187c5.262,0,8.66-0.703,10.197-2.111
				s2.514-3.193,2.932-5.357c0.416-2.162,0.625-7.676,0.625-16.541v-52.006c0-8.08-0.223-13.398-0.665-15.953
				c-0.441-2.555-1.459-4.342-3.047-5.357c-1.59-1.018-4.936-1.525-10.042-1.525v-3.598h75.8l2.422,26.434h-3.595
				c-1.668-7.402-3.711-12.656-6.134-15.758c-2.424-3.102-5.303-5.057-8.635-5.865c-3.336-0.809-8.701-1.213-16.099-1.213h-14.69
				v44.498h11.287c5.171,0,8.789-0.441,10.852-1.328c2.064-0.887,3.422-2.229,4.075-4.027s0.98-5.305,0.98-10.52h3.595v36.287
				h-3.595c0-5.891-0.497-9.84-1.491-11.848c-0.991-2.006-2.44-3.311-4.348-3.91s-5.133-0.898-9.679-0.898h-11.677v25.104
				c0,12.564,0.806,19.955,2.419,22.17c1.612,2.217,5.956,3.324,13.032,3.324h7.881c5.565,0,10.145-0.709,13.733-2.131
				c3.589-1.42,7.011-4.359,10.263-8.818C1380.627,377.453,1383.189,371.303,1385.063,363.455z"/>
		</g>
	</g>
</g>
</svg>
